<svg height='100px' width='100px'  fill="#000000" xmlns="http://www.w3.org/2000/svg" xmlns:xlink="http://www.w3.org/1999/xlink" version="1.1" x="0px" y="0px" viewBox="0 0 64 64" style="enable-background:new 0 0 64 64;" xml:space="preserve"><style type="text/css">
	.st0{display:none;}
	.st1{display:inline;}
	.st2{fill:none;stroke:#000000;stroke-width:0.1;stroke-miterlimit:10;}
</style><g class="st0"><g class="st1"><rect x="2" y="2" class="st2" width="60" height="60"></rect><line class="st2" x1="32" y1="2" x2="32" y2="62"></line><line class="st2" x1="62" y1="32" x2="2" y2="32"></line><line class="st2" x1="2" y1="2" x2="62" y2="62"></line><rect x="10" y="10" class="st2" width="44" height="44"></rect><line class="st2" x1="62" y1="2" x2="2" y2="62"></line><line class="st2" x1="2" y1="32" x2="32" y2="2"></line><line class="st2" x1="32" y1="2" x2="62" y2="32"></line><line class="st2" x1="62" y1="32" x2="32" y2="62"></line><line class="st2" x1="32" y1="62" x2="2" y2="32"></line><circle class="st2" cx="32" cy="32" r="21"></circle></g></g><g><path d="M8,44c-1.7,0-3-1.3-3-3s1.3-3,3-3s3,1.3,3,3S9.7,44,8,44z M8,40c-0.6,0-1,0.4-1,1s0.4,1,1,1s1-0.4,1-1S8.6,40,8,40z"></path></g><path d="M34.8,19.1l-2.3-5.5l16.6-6.9l2.3,5.5L34.8,19.1z M35.2,14.7l0.8,1.8l12.9-5.4l-0.8-1.8L35.2,14.7z"></path><path d="M62,48l-0.3-1.1c-0.2-0.8-0.7-1.5-1.5-1.9c-0.7-0.3-1.6-0.4-2.4-0.1L53,46v-4h-2v-4h-2v-2h2v-6h-2v-2h2v-6H33v4h-2v6h2v2h-2  v2.3c-0.6,0-1.3-0.2-1.9-0.6C27.2,34.6,25,34,22.6,34c-3.1,0-6.6,2.3-8.6,3.9V35H2v24h12v-5.8l18.1,2.7C32.7,56,33.4,56,34,56h8.8  c0.8,0,1.7-0.1,2.5-0.4l7.8-1.5c1-0.2,1.9-0.5,2.7-1l5.4-3C61.9,49.7,62.2,48.8,62,48z M12,57H4V37h8V57z M43.6,40.3l0.1-0.3H49v2  h-6.3C43.1,41.5,43.4,41,43.6,40.3z M51,44v2h-9.8L37,45v-0.8l0.7-0.2H51z M49,34H35v-2h14V34z M35,24h14v2H35V24z M33,28h14v2H33  V28z M33,36h14v2h-3.3c-0.1-0.1-0.1-0.2-0.2-0.3c-0.4-0.5-0.9-0.8-1.5-0.8l-9-0.5V36z M54.8,51.5c-0.7,0.4-1.4,0.7-2.1,0.8l-7.8,1.5  c-0.7,0.1-1.4,0.2-2.1,0.2H34c-0.5,0-1.1,0-1.6-0.2L14,51.1V40.5c1.1-1,5.3-4.4,8.6-4.4c2,0,4,0.5,5.5,1.4C29,38,30,38.3,31,38.4  l10.9,0.5l-0.2,0.9c-0.2,0.8-0.9,1.4-1.7,1.5l-12.4,3.4l14.9,3.7c1.8,0.4,3.7,0.5,5.5,0.3l5.4-0.7l5-1.2h0.1c0.2-0.1,0.5-0.1,0.8,0  c0.2,0.1,0.4,0.3,0.5,0.6l0.3,1.1L54.8,51.5z"></path></svg>